<svg width="113" height="34" viewBox="0 0 113 34" fill="none" xmlns="http://www.w3.org/2000/svg">
<path d="M29.251 0.871094H34.3492V33.0402H29.251V0.871094ZM52.1927 22.7783C52.1927 27.7014 48.0925 28.094 46.8728 28.094C43.8254 28.094 43.2709 25.2141 43.2709 23.477V11.1652H38.1728V23.4513C38.1728 26.5008 39.121 29.0178 40.7831 30.6957C42.2514 32.1793 44.4512 32.9901 46.8346 32.9901C48.5245 32.9901 50.9182 32.4586 52.1927 31.2838V33.0402H57.2908V11.1652H52.1927V22.7783ZM67.4871 3.44463H62.389V11.1652H58.5655V16.3123H62.389V33.0402H67.4871V16.3123H71.3107V11.1652H67.4871V3.44463ZM109.802 13.0722C108.333 11.5898 106.613 10.7792 104.229 10.7792C102.539 10.7792 100.625 11.3107 99.3505 12.4841V0.871094H94.2524V33.0402H99.3505V20.9896C99.3505 16.0665 102.815 15.6753 104.034 15.6753C107.082 15.6753 106.998 18.5563 106.998 20.291V33.0402H112.096V20.318C112.096 17.2683 111.465 14.7514 109.802 13.0722Z" fill="white"/>
<path d="M22.1121 24.9583C20.1735 26.9722 17.5403 28.0634 14.7695 28.0634C9.09014 28.0634 4.96064 23.5596 4.96064 17.378C4.96064 11.168 9.09014 6.66438 14.7695 6.66438C17.5136 6.66438 20.1174 7.75427 22.0853 9.74104L22.8602 10.5247L26.2684 7.08386L25.5202 6.30023C22.6945 3.36254 18.871 1.76953 14.7695 1.76953C6.40214 1.76953 0.112305 8.48258 0.112305 17.405C0.112305 26.3004 6.43018 32.9865 14.7695 32.9865C18.899 32.9865 22.7226 31.3651 25.5483 28.4274L26.2964 27.6438L22.9164 24.1477L22.1121 24.9583Z" fill="white"/>
<path d="M83.1787 28.0677C84.7871 28.0677 86.2528 27.5093 87.3629 26.5017L88.1378 25.8043L91.6288 29.2708L90.7978 30.0545C88.8006 31.928 86.0871 32.9626 83.1774 32.9626C76.9155 32.9626 72.1768 28.1539 72.1768 21.8024C72.1768 15.4239 76.8046 10.7812 83.1774 10.7812C86.0336 10.7812 88.719 11.8159 90.7417 13.6598L91.6021 14.4434L88.1646 17.9126L87.391 17.2408C86.2528 16.2334 84.7591 15.7019 83.1787 15.7019C79.5501 15.7019 77.0289 18.2201 77.0289 21.8295C77.0289 25.4389 79.6329 28.0677 83.1787 28.0677Z" fill="white"/>
<path d="M83.0101 18.1641C83.9878 18.1641 84.9253 18.5561 85.6165 19.2539C86.3078 19.9519 86.6961 20.8984 86.6961 21.8854C86.6961 22.8723 86.3078 23.8188 85.6165 24.5167C84.9253 25.2146 83.9878 25.6067 83.0101 25.6067C82.0325 25.6067 81.095 25.2146 80.4038 24.5167C79.7125 23.8188 79.3242 22.8723 79.3242 21.8854C79.3242 20.8984 79.7125 19.9519 80.4038 19.2539C81.095 18.5561 82.0325 18.1641 83.0101 18.1641Z" fill="#FE3934"/>
</svg>
