<svg width="183" height="42" viewBox="0 0 183 42" fill="none" xmlns="http://www.w3.org/2000/svg">
<path d="M32.7793 17.6572H38.8713C43.7746 17.6572 47.1922 21.0004 47.1922 25.3094V25.3837C47.1922 29.6926 43.849 33.0358 38.8713 33.0358H32.7793V17.6572ZM38.8713 29.9155C41.6945 29.9155 43.5518 28.0582 43.5518 25.3837V25.3094C43.5518 22.6349 41.6945 20.7032 38.8713 20.7032H36.2712V29.9155H38.8713Z" fill="white"/>
<path d="M50.165 17.6572H61.9776V20.6289H53.6568V23.7493H61.0119V26.7209H53.6568V29.9156H62.1261V32.8873H50.2394L50.165 17.6572Z" fill="white"/>
<path d="M64.0576 30.7321L66.1379 28.3546C67.5495 29.469 69.0352 30.2119 70.8183 30.2119C72.2299 30.2119 73.0471 29.6177 73.0471 28.8004V28.7261C73.0471 27.8346 72.4528 27.3889 69.9268 26.7945C66.8065 25.9773 64.7263 25.1601 64.7263 22.114V22.0397C64.7263 19.2909 66.9551 17.4336 70.224 17.4336C72.4528 17.4336 74.4586 18.1021 76.0188 19.3652L74.2357 21.9654C72.8985 20.9996 71.4869 20.4796 70.1496 20.4796C68.8124 20.4796 68.1437 21.074 68.1437 21.8169V21.7425C68.1437 22.7084 68.8124 23.0798 71.4869 23.7485C74.6816 24.5657 76.3902 25.6801 76.3902 28.2804V28.3546C76.3902 31.4006 74.0129 33.1094 70.6697 33.1094C68.2924 33.1094 65.9149 32.2922 64.0576 30.7321Z" fill="white"/>
<path d="M79.5107 17.6572H82.9281V32.9615H79.5107V17.6572Z" fill="white"/>
<path d="M86.1963 25.3087C86.1963 20.9254 89.6138 17.3594 94.3686 17.3594C97.1916 17.3594 98.8261 18.1023 100.46 19.5138L98.306 22.1142C97.1174 21.1483 96.0772 20.5541 94.2199 20.5541C91.694 20.5541 89.7623 22.7085 89.7623 25.3087V25.383C89.7623 28.2062 91.694 30.2863 94.5171 30.2863C95.78 30.2863 96.8944 29.9891 97.786 29.3206V27.1661H94.2943V24.2686H101.055V30.8807C99.4204 32.2179 97.266 33.3323 94.3686 33.3323C89.4652 33.1095 86.1963 29.8406 86.1963 25.3087Z" fill="white"/>
<path d="M104.323 17.6572H107.518L114.799 27.0181V17.6572H118.142V32.9615H115.244L107.666 23.2292V32.9615H104.323V17.6572Z" fill="white"/>
<path d="M121.931 17.6572H129.063C131.069 17.6572 132.555 18.2516 133.595 19.2173C134.486 20.1089 134.932 21.2975 134.932 22.709V22.7834C134.932 25.235 133.595 26.7951 131.589 27.5382L135.378 32.9615H131.366L128.023 28.0582H127.949H125.274V32.9615H121.782V17.6572H121.931ZM128.84 25.0122C130.549 25.0122 131.44 24.1206 131.44 22.8577V22.7834C131.44 21.3718 130.475 20.6289 128.766 20.6289H125.348V25.0122H128.84Z" fill="url(#paint0_linear_382_143)"/>
<path d="M137.83 26.3497V17.583H141.247V26.201C141.247 28.727 142.511 29.9157 144.591 29.9157C146.671 29.9157 147.934 28.6526 147.934 26.201V17.5088H151.352V26.1267C151.352 30.7329 148.677 33.0359 144.516 33.0359C140.356 33.0359 137.83 30.8071 137.83 26.3497Z" fill="url(#paint1_linear_382_143)"/>
<path d="M153.803 30.7321L155.883 28.3546C157.295 29.469 158.781 30.2119 160.563 30.2119C161.975 30.2119 162.793 29.6177 162.793 28.8004V28.7261C162.793 27.8346 162.198 27.3889 159.673 26.7945C156.553 25.9773 154.471 25.1601 154.471 22.114V22.0397C154.471 19.2909 156.701 17.4336 159.97 17.4336C162.198 17.4336 164.205 18.1021 165.765 19.3652L163.982 21.9654C162.645 20.9996 161.233 20.4796 159.895 20.4796C158.558 20.4796 157.89 21.074 157.89 21.8169V21.7425C157.89 22.7084 158.558 23.0798 161.233 23.7485C164.427 24.5657 166.135 25.6801 166.135 28.2803V28.3546C166.135 31.4006 163.758 33.1094 160.415 33.1094C158.113 33.1094 155.661 32.2922 153.803 30.7321Z" fill="url(#paint2_linear_382_143)"/>
<path d="M169.108 17.6572H172.525V23.7493H178.841V17.6572H182.258V32.9615H178.841V26.8696H172.525V32.9615H169.108V17.6572Z" fill="url(#paint3_linear_382_143)"/>
<path d="M13.1664 26.2752C13.0922 26.2009 13.0922 26.2752 13.1664 26.2752L12.795 26.0524L12.7207 25.9781L3.95413 19.7375C3.95413 19.7375 3.87985 19.7375 3.87985 19.6632L3.73126 19.5145L3.65697 19.4403H3.50838L0.982422 17.6572L5.96004 18.4001C6.18292 18.4001 6.25721 18.4744 6.48009 18.5488C6.55439 18.5488 6.70297 18.6231 6.70297 18.6231C6.92585 18.6973 7.00014 18.7716 7.14873 18.846C7.29732 18.9201 7.37161 18.9945 7.5202 19.0688C7.59449 19.1431 7.74306 19.2173 7.74306 19.2917C7.81737 19.366 7.89166 19.366 7.96594 19.4403C8.11454 19.5145 8.18882 19.5888 8.18882 19.6632C8.4117 19.886 8.5603 20.1089 8.78318 20.2575L12.7207 25.8294L12.795 25.9037L13.1664 26.2752Z" fill="#2AD2FF"/>
<path d="M13.1673 34.8931L12.7959 34.2989L12.7216 34.2246L1.05762 17.6572L3.58357 19.4403L4.02933 19.7375L12.7959 25.9781H12.8702L13.1673 26.2009C13.1673 26.2009 13.2417 26.2009 13.2417 26.2752L13.6131 25.9781L25.4256 17.6572L13.5388 34.2989L13.4645 34.3731L13.1673 34.8931Z" fill="url(#paint4_linear_382_143)"/>
<path d="M13.1674 23.452L12.7959 22.8577L12.7216 22.7833L9.82422 18.7716L12.7216 19.366H12.7959L13.1674 19.4403L13.5389 19.366L16.362 18.6973L13.5389 22.8577V22.932L13.1674 23.452Z" fill="#2AD2FF"/>
<path d="M25.4996 17.583L21.7849 18.103L20.3733 18.326C19.2589 18.4746 18.2189 19.0689 17.5503 20.0347L13.6128 25.681L13.5384 25.7553L13.167 26.2754L13.6128 25.8295L13.687 25.7553L13.167 26.2754L23.1965 19.1433L25.4996 17.583Z" fill="#2AD2FF"/>
<path d="M15.0229 5.84481C15.0229 9.1137 9.37664 10.8224 9.37664 14.3142C9.30233 15.1314 9.52521 15.9486 9.89668 16.6916C9.89668 16.6916 7.74219 14.6113 7.74219 12.3826C7.74219 10.1538 9.82238 6.81062 9.82238 6.81062C9.82238 8.29648 10.4167 8.74222 11.0111 8.81653H11.0854C11.754 8.81653 12.1255 8.29648 12.1255 7.55355C12.1255 6.81062 11.3083 6.06769 11.3083 4.58182C11.3083 3.17027 13.0913 0.867188 13.0913 0.867188C14.3543 2.35304 15.0229 4.06177 15.0229 5.84481Z" fill="#2AF4FF"/>
<path d="M13.4641 17.7322C11.681 17.7322 10.3438 16.3206 10.3438 14.6119V14.5375C10.3438 10.7486 15.6185 10.3772 15.6185 5.25098C15.7671 5.47386 17.1787 7.40547 17.1787 9.48567C17.1787 12.0859 14.727 12.7545 14.727 14.0175C14.727 14.5375 14.9499 14.909 15.6928 14.909C15.7671 14.909 15.8415 14.909 15.9156 14.8347C17.3272 14.2404 18.2931 12.9031 18.3674 11.343C18.3674 11.4173 19.1103 17.7322 13.4641 17.7322Z" fill="#2AF4FF"/>
<path d="M15.767 14.909C15.8413 14.909 15.9155 14.909 15.9898 14.8347C15.2469 15.0576 12.498 15.7263 12.498 13.7947C12.498 11.4173 16.5842 10.8972 16.5842 8.89133C16.5842 7.62835 16.287 6.36538 15.6183 5.25098C15.767 5.47386 17.1785 7.40547 17.1785 9.48567C17.1785 12.0859 14.7268 12.7545 14.7268 14.0175C14.8011 14.5375 15.0983 14.909 15.767 14.909Z" fill="#2AD2FF"/>
<path d="M13.5396 7.18208C13.5396 9.03941 11.1622 8.89082 11.0137 8.81653H11.2366C11.9052 8.81653 12.2766 8.29648 12.2766 7.55355C12.2766 6.81061 11.4594 6.06768 11.4594 4.58182C11.4594 3.17027 13.2425 0.867188 13.2425 0.867188C12.6481 1.83299 12.3509 2.8731 12.2766 3.9132C12.2766 5.62193 13.5396 5.77051 13.5396 7.18208Z" fill="#2AD2FF"/>
<path d="M12.0524 39.6485L10.418 38.5341H12.4239L13.0925 36.5283L13.6869 38.5341H15.6927L14.0583 39.6485L14.6527 41.5801L13.0182 40.3914L11.3095 41.5801L12.0524 39.6485Z" fill="#2AD2FF"/>
<path d="M20.5963 39.6485L18.9619 38.5341H20.9677L21.6364 36.5283L22.2308 38.5341H24.2367L22.6021 39.6485L23.1965 41.5801L21.5621 40.3914L19.8533 41.5801L20.5963 39.6485Z" fill="#2AD2FF"/>
<path d="M3.58268 39.6485L1.94824 38.5341H3.95415L4.62278 36.5283L5.21713 38.5341H7.22303L5.58858 39.6485L6.18294 41.5801L4.54849 40.3914L2.91405 41.5801L3.58268 39.6485Z" fill="#2AD2FF"/>
<defs>
<linearGradient id="paint0_linear_382_143" x1="120.341" y1="0.792706" x2="182.896" y2="0.792706" gradientUnits="userSpaceOnUse">
<stop offset="0.73" stop-color="#2AF4FF"/>
<stop offset="0.884" stop-color="#2AF4FF"/>
</linearGradient>
<linearGradient id="paint1_linear_382_143" x1="120.342" y1="0.792845" x2="182.896" y2="0.792845" gradientUnits="userSpaceOnUse">
<stop offset="0.73" stop-color="#2AF4FF"/>
<stop offset="0.884" stop-color="#2AF4FF"/>
</linearGradient>
<linearGradient id="paint2_linear_382_143" x1="120.342" y1="0.791978" x2="182.897" y2="0.791978" gradientUnits="userSpaceOnUse">
<stop offset="0.73" stop-color="#2AF4FF"/>
<stop offset="0.884" stop-color="#2AF4FF"/>
</linearGradient>
<linearGradient id="paint3_linear_382_143" x1="120.342" y1="0.792763" x2="182.897" y2="0.792763" gradientUnits="userSpaceOnUse">
<stop offset="0.73" stop-color="#2AF4FF"/>
<stop offset="0.884" stop-color="#2AF4FF"/>
</linearGradient>
<linearGradient id="paint4_linear_382_143" x1="0.983324" y1="34.9244" x2="0.983324" y2="25.8057" gradientUnits="userSpaceOnUse">
<stop offset="0.73" stop-color="#2AF4FF"/>
<stop offset="0.884" stop-color="#2AF4FF"/>
</linearGradient>
</defs>
</svg>
