<svg width="218" height="32" viewBox="0 0 218 32" fill="none" xmlns="http://www.w3.org/2000/svg">
<path d="M13.3212 11.232C13.3212 11.232 11.522 11.0616 11.522 12.5862V19.3573H23.405V21.3894C23.405 21.3894 23.4403 22.4047 22.3247 22.4047H11.5215V31.2079H24.4847C24.4847 31.2079 32.334 30.0564 32.4064 22.4047V11.232H13.3212ZM32.0455 0.396484H8.64054C0.177294 2.2922 -0.00195312 8.8948 -0.00195312 8.8948V31.2089H9.00144V10.8934C9.00144 9.16628 10.8007 8.86263 10.8007 8.86263H32.047L32.0455 0.396484ZM62.9446 24.8231C62.3272 25.2149 61.8706 25.5024 61.5478 25.6857C60.3936 26.3651 59.2929 26.8887 58.2731 27.3072C56.796 27.8823 55.4795 28.1698 54.2993 28.1698C50.245 28.1698 46.8882 26.993 44.1753 24.6132C41.4625 22.2332 40.1228 19.2535 40.1228 15.6454C40.1228 12.1681 41.331 9.16026 43.7739 6.59672C46.2167 4.03496 49.1706 2.7791 52.6613 2.7791C54.1122 2.7791 55.6675 3.01382 57.2787 3.51268C59.3731 4.13923 61.0642 5.08134 62.4068 6.30916L60.0703 8.76666C59.078 7.85256 57.7894 7.17182 56.2849 6.75381C55.1582 6.43963 53.9238 6.28437 52.553 6.28437C50.1103 6.28437 48.042 7.22326 46.4046 9.08093C44.7672 10.9632 43.9353 13.186 43.9353 15.8007C43.9353 18.3904 44.8736 20.5076 46.7535 22.208C48.6334 23.9072 51.022 24.7698 53.9219 24.7698C55.1301 24.7698 56.3666 24.4028 57.627 23.6986C58.675 22.9403 59.2118 22.5732 59.2384 22.547V17.1874H51.3984L52.5251 13.8406H62.9436L62.9446 24.8231ZM86.626 18.2852C86.626 20.8736 85.6596 23.1226 83.7261 25.005C81.7926 26.8874 79.4034 27.8556 76.5577 27.8556C73.9264 27.8556 71.6175 26.9135 69.6298 25.0579C67.6422 23.2016 66.6759 20.9527 66.6759 18.3114C66.6759 15.6968 67.6171 13.4474 69.4955 11.5122C71.3735 9.57702 73.6839 8.63621 76.3954 8.63621C79.4029 8.63621 81.8462 9.55175 83.7521 11.4079C85.6601 13.2127 86.626 15.5135 86.626 18.2852ZM82.9468 18.338C82.9468 16.5862 82.3294 15.0955 81.0949 13.8926C79.8604 12.6628 78.3294 12.0616 76.5035 12.0616C74.7859 12.0616 73.3351 12.6894 72.1267 13.9453C70.9184 15.1998 70.3275 16.6376 70.3275 18.2591C70.3275 19.9595 70.945 21.3972 72.1533 22.6008C73.3617 23.8038 74.8661 24.4303 76.6905 24.4303C78.3834 24.4303 79.8325 23.8286 81.0688 22.6256C82.3298 21.4225 82.9487 19.9843 82.9487 18.3386L82.9468 18.338ZM109.985 18.2852C109.985 20.8736 109.019 23.1226 107.085 25.005C105.152 26.8874 102.762 27.8556 99.9168 27.8556C97.2856 27.8556 94.9766 26.9135 92.9889 25.0579C91.0028 23.2016 90.035 20.9527 90.035 18.3114C90.035 15.6968 90.9762 13.4474 92.8546 11.5122C94.7345 9.57702 97.0431 8.63621 99.7545 8.63621C102.762 8.63621 105.205 9.55175 107.111 11.4079C109.019 13.2127 109.985 15.5135 109.985 18.2852ZM106.306 18.338C106.306 16.5862 105.688 15.0955 104.454 13.8926C103.22 12.6628 101.688 12.0616 99.8626 12.0616C98.145 12.0616 96.6942 12.6894 95.4858 13.9453C94.2775 15.1998 93.6867 16.6376 93.6867 18.2591C93.6867 19.9595 94.3041 21.3972 95.5138 22.6008C96.7208 23.8038 98.2252 24.4303 100.051 24.4303C101.743 24.4303 103.192 23.8286 104.428 22.6256C105.689 21.4225 106.308 19.9843 106.308 18.3386L106.306 18.338ZM131.6 27.3321L128.217 27.8295V24.7175L127.492 25.5011C126.853 26.0702 126.129 26.5461 125.344 26.914C124.191 27.4198 122.936 27.6783 121.666 27.6724C119.035 27.6724 116.779 26.7569 114.953 24.8994C113.127 23.0418 112.215 20.8469 112.215 18.2852C112.215 15.6439 113.127 13.3697 114.926 11.486C116.725 9.60228 118.926 8.66148 121.557 8.66148C123.062 8.66148 124.377 8.89627 125.477 9.36709C126.256 9.70747 126.928 10.152 127.491 10.7023C127.679 10.937 127.867 11.1984 128.056 11.4331V3.27519L131.652 2.77772L131.6 27.3321ZM128.432 18.52C128.432 16.6903 127.786 15.147 126.471 13.892C125.157 12.6095 123.678 11.983 121.988 11.983C120.108 11.983 118.605 12.5847 117.451 13.7878C116.376 14.9366 115.812 16.3495 115.812 17.9972C115.812 19.8534 116.376 21.3954 117.504 22.5984C118.63 23.8016 120.055 24.4033 121.8 24.4033C123.518 24.4033 125.022 23.8543 126.365 22.7308C127.734 21.5792 128.432 20.1676 128.432 18.52ZM150.582 6.67618H140.514V13.1866H148.327V16.5333H140.514V27.3072L136.594 27.8561V3.30184H149.803L150.582 6.67618ZM158.664 4.76578L156.248 7.66791L153.938 4.76578L156.381 1.88982L158.664 4.76578ZM157.938 27.3321L154.342 27.8029V9.62976L157.938 9.10752V27.3321ZM174.183 8.92418L172.492 12.6363C172.27 12.6041 172.045 12.587 171.821 12.5847C171.471 12.5847 171.123 12.611 170.772 12.6624C170.422 12.7138 170.048 12.8456 169.645 13.0294C168.894 13.3436 168.249 14.0224 167.685 15.0422C167.063 16.1998 166.739 17.4818 166.744 18.7822V27.3068L163.149 27.8556V9.62976L166.478 9.05463V12.8462C166.907 12.1916 167.364 11.5387 167.793 10.8595C168.41 10.1787 169.135 9.68264 169.94 9.39368C170.369 9.23797 171.149 9.1062 172.329 9.00189C173.459 8.92418 174.104 8.87145 174.183 8.92418ZM200.978 27.3321L197.38 27.8295V15.3564C197.38 14.2049 197.111 13.3684 196.575 12.8462C196.038 12.3225 195.232 12.0611 194.184 12.0611C192.923 12.0611 191.957 12.5585 191.312 13.5516C190.881 14.231 190.642 14.9632 190.642 15.6955V27.3058L187.044 27.9338V15.4344C187.044 14.3371 186.775 13.4993 186.264 12.9255C185.726 12.3491 185.03 12.0616 184.116 12.0616H183.768C182.505 12.0616 181.591 12.559 181.029 13.5788C180.6 14.3371 180.385 15.304 180.385 16.481V27.3063L176.652 27.9342V9.6302L180.008 9.08137V11.4083C180.384 10.858 180.76 10.4135 181.109 10.101C182.076 9.23841 183.204 8.81856 184.465 8.81856C185.888 8.81856 186.934 9.02848 187.66 9.47316C188.277 9.84012 188.867 10.5705 189.458 11.6169C190.693 9.76064 192.438 8.819 194.749 8.819C196.95 8.819 198.589 9.4736 199.662 10.807C200.549 11.9044 200.978 13.5259 200.978 15.6444V27.3321ZM217.413 21.8153C217.413 23.4878 216.796 24.8745 215.561 25.9471C214.327 27.0444 212.768 27.5686 210.888 27.5686C209.466 27.5686 208.202 27.2543 207.049 26.6265C205.895 25.9999 205.037 25.2925 204.471 24.4564L206.996 22.3127C207.183 22.5742 207.346 22.7822 207.506 22.9392C208.446 23.8547 209.573 24.326 210.889 24.326C211.803 24.326 212.527 24.0914 213.037 23.6467C213.575 23.202 213.816 22.5742 213.816 21.763C213.816 20.8488 213.199 20.221 211.965 19.8804C209.52 19.175 208.204 18.7831 208.016 18.7036C206.888 18.1548 206.083 17.5797 205.571 16.9255C205.009 16.1672 204.714 15.1735 204.714 13.893C204.714 12.3229 205.331 11.017 206.54 9.97101C207.749 8.92507 209.197 8.42767 210.861 8.42767C212.125 8.42767 213.306 8.68904 214.38 9.23885C215.454 9.78782 216.232 10.3629 216.689 11.0437L214.54 13.265C214.218 12.9581 213.868 12.678 213.494 12.4285C212.635 11.8534 211.803 11.5659 211.024 11.5659C210.271 11.5659 209.654 11.723 209.171 12.0354C208.606 12.4285 208.311 13.0037 208.311 13.7626C208.311 14.4947 208.58 15.0437 209.146 15.3841C209.629 15.6715 210.648 15.9858 212.26 16.3242C213.87 16.6913 215.105 17.3192 215.991 18.2081C216.984 19.1478 217.413 20.3247 217.413 21.8153Z" fill="#3A7AF3"/>
</svg>
