<svg width="207" height="33" viewBox="0 0 207 33" fill="none" xmlns="http://www.w3.org/2000/svg">
<path fill-rule="evenodd" clip-rule="evenodd" d="M-0.00976562 5.86916C3.37398 6.01533 6.94009 5.89003 10.2631 5.89003C12.9579 5.89003 18.1045 4.88772 18.1856 8.41671C18.2464 12.0292 13.1605 11.0478 10.4454 11.0478C7.06162 11.0478 3.33346 10.8808 -0.00976562 11.0686V16.3936C3.41451 16.498 6.98063 16.3936 10.4454 16.3936C13.8089 16.3936 18.145 15.3285 18.1856 19.3588C18.2261 24.2868 17.2332 29.0896 21.7111 31.9712C22.0961 32.2218 23.0686 32.6603 23.5347 32.7648C24.568 32.9527 25.8242 32.9944 26.6753 32.8065C29.3093 32.4723 31.7408 29.6325 32.2676 27.0432C32.7944 24.3912 32.146 18.7531 32.3891 15.6208H50.3615L50.4224 10.2335H32.3891C32.0853 5.013 34.3546 5.84828 39.2579 5.84828C42.9862 5.84828 46.7347 5.86916 50.4426 5.84828L50.4224 0.502573C48.0922 0.460809 34.8409 0.335516 33.4834 0.544337C31.1936 0.899326 29.3904 2.21486 28.2557 3.94805C26.6956 6.32855 26.9185 8.2079 26.9185 11.4237V24.4955C26.9387 25.9573 26.9185 27.3147 25.5204 27.4817C22.0758 27.8992 24.6084 20.5907 23.2914 16.5606C22.7243 14.8274 22.0556 14.3679 21.8123 13.7207C22.2176 12.7392 26.1079 8.12434 21.5288 2.98748C20.7587 2.13134 20.0091 1.52578 18.6515 1.00373C16.22 0.0849445 12.4715 0.481683 9.57417 0.481683C6.4538 0.481683 3.11058 0.37728 0.010492 0.502573L-0.00976562 5.86916Z" fill="#9C46FF"/>
<path d="M67.0165 16.5254H61.7546V25.8645H58.7852V2.77825H66.2011C68.7243 2.77825 70.6628 3.37021 72.0168 4.55412C73.3809 5.73804 74.063 7.46101 74.063 9.72323C74.063 11.1608 73.6835 12.4133 72.9245 13.4811C72.1757 14.5487 71.1295 15.3468 69.7859 15.8753L75.0477 25.6743V25.8645H71.8783L67.0165 16.5254ZM61.7546 14.036H66.2933C67.7601 14.036 68.9243 13.6449 69.7859 12.8627C70.6576 12.0804 71.0936 11.0339 71.0936 9.72323C71.0936 8.2961 70.6782 7.20208 69.8475 6.44102C69.0267 5.67989 67.837 5.29405 66.2779 5.28349H61.7546V14.036ZM80.8634 25.8645H78.0171V8.7084H80.8634V25.8645ZM77.7864 4.15772C77.7864 3.68204 77.9247 3.28035 78.2017 2.95267C78.4889 2.62496 78.9094 2.46113 79.4633 2.46113C80.0172 2.46113 80.4378 2.62496 80.7248 2.95267C81.012 3.28035 81.1557 3.68204 81.1557 4.15772C81.1557 4.63339 81.012 5.02979 80.7248 5.34691C80.4378 5.66404 80.0172 5.82261 79.4633 5.82261C78.9094 5.82261 78.4889 5.66404 78.2017 5.34691C77.9247 5.02979 77.7864 4.63339 77.7864 4.15772ZM84.7558 17.1438C84.7558 14.4695 85.3559 12.3447 86.556 10.7698C87.756 9.1841 89.346 8.39125 91.3255 8.39125C93.3564 8.39125 94.9412 9.13121 96.0796 10.6111L96.218 8.7084H98.8182V25.4523C98.8182 27.6722 98.1771 29.4216 96.895 30.7007C95.6232 31.9796 93.9102 32.6192 91.7563 32.6192C90.5563 32.6192 89.3818 32.355 88.233 31.8264C87.0842 31.2979 86.2072 30.5738 85.6021 29.6542L87.0791 27.8941C88.2997 29.4479 89.7921 30.225 91.5562 30.225C92.9409 30.225 94.018 29.8233 94.7872 29.0199C95.5668 28.2166 95.9565 27.0854 95.9565 25.6269V24.1521C94.8181 25.5052 93.2641 26.1817 91.2947 26.1817C89.3459 26.1817 87.7663 25.373 86.556 23.7558C85.3559 22.1384 84.7558 19.9344 84.7558 17.1438ZM87.6176 17.4767C87.6176 19.4113 88.0022 20.9333 88.7714 22.0433C89.5409 23.1427 90.6178 23.6923 92.0024 23.6923C93.7974 23.6923 95.1155 22.852 95.9565 21.1713V13.3383C95.0847 11.6999 93.777 10.8807 92.0332 10.8807C90.6485 10.8807 89.5665 11.4357 88.7868 12.5455C88.0074 13.6555 87.6176 15.2992 87.6176 17.4767ZM105.973 10.7855C107.234 9.18938 108.875 8.39125 110.896 8.39125C114.414 8.39125 116.188 10.4367 116.22 14.5275V25.8645H113.373V14.5116C113.363 13.2749 113.085 12.3606 112.543 11.7685C112.009 11.1767 111.173 10.8807 110.034 10.8807C109.111 10.8807 108.3 11.1344 107.603 11.6418C106.905 12.1492 106.363 12.8151 105.973 13.6396V25.8645H103.126V1.50977H105.973V10.7855ZM124.343 4.55412V8.7084H127.451V10.9757H124.343V21.6151C124.343 22.3023 124.481 22.8203 124.758 23.1692C125.035 23.5074 125.507 23.6764 126.173 23.6764C126.502 23.6764 126.953 23.613 127.527 23.4862V25.8645C126.779 26.0759 126.051 26.1817 125.343 26.1817C124.071 26.1817 123.112 25.7854 122.466 24.9925C121.82 24.1997 121.496 23.074 121.496 21.6151V10.9757H118.465V8.7084H121.496V4.55412H124.343ZM143.59 15.6692H134.189V25.8645H131.235V2.77825H145.113V5.28349H134.189V13.1797H143.59V15.6692ZM151.298 25.8645H148.452V8.7084H151.298V25.8645ZM148.22 4.15772C148.22 3.68204 148.359 3.28035 148.637 2.95267C148.924 2.62496 149.345 2.46113 149.898 2.46113C150.451 2.46113 150.873 2.62496 151.159 2.95267C151.447 3.28035 151.59 3.68204 151.59 4.15772C151.59 4.63339 151.447 5.02979 151.159 5.34691C150.873 5.66404 150.451 5.82261 149.898 5.82261C149.345 5.82261 148.924 5.66404 148.637 5.34691C148.359 5.02979 148.22 4.63339 148.22 4.15772ZM163.915 11.3405C163.485 11.2666 163.016 11.2296 162.515 11.2296C160.646 11.2296 159.38 12.0487 158.715 13.6872V25.8645H155.868V8.7084H158.637L158.682 10.6903C159.617 9.15765 160.94 8.39125 162.653 8.39125C163.207 8.39125 163.627 8.46529 163.915 8.61325V11.3405ZM169.221 8.7084L169.299 10.6111C170.52 9.13121 172.166 8.39125 174.238 8.39125C176.566 8.39125 178.15 9.31087 178.992 11.1502C179.547 10.3257 180.264 9.65977 181.147 9.15237C182.038 8.64497 183.09 8.39125 184.301 8.39125C187.951 8.39125 189.808 10.3838 189.87 14.369V25.8645H187.024V14.5434C187.024 13.3172 186.751 12.4029 186.207 11.8003C185.664 11.1873 184.752 10.8807 183.469 10.8807C182.413 10.8807 181.536 11.2084 180.838 11.8637C180.14 12.5085 179.735 13.3806 179.623 14.4799V25.8645H176.762V14.6227C176.762 12.128 175.576 10.8807 173.207 10.8807C171.341 10.8807 170.063 11.6999 169.377 13.3383V25.8645H166.53V8.7084H169.221ZM203.871 21.314C203.871 20.5211 203.577 19.9081 202.994 19.4746C202.419 19.0307 201.409 18.6502 199.962 18.333C198.527 18.0159 197.382 17.6354 196.532 17.1913C195.691 16.7474 195.064 16.2189 194.654 15.6058C194.253 14.9928 194.055 14.2632 194.055 13.4177C194.055 12.0117 194.629 10.8225 195.778 9.85C196.937 8.87748 198.413 8.39125 200.209 8.39125C202.095 8.39125 203.624 8.89339 204.793 9.8976C205.973 10.9018 206.562 12.1862 206.562 13.7505H203.702C203.702 12.9473 203.367 12.2549 202.7 11.6734C202.043 11.0921 201.213 10.8013 200.209 10.8013C199.173 10.8013 198.362 11.0339 197.777 11.499C197.193 11.9642 196.9 12.572 196.9 13.3225C196.9 14.0307 197.172 14.5645 197.716 14.924C198.259 15.2833 199.239 15.6269 200.655 15.9545C202.08 16.2823 203.235 16.6735 204.116 17.128C204.999 17.5825 205.65 18.1321 206.07 18.777C206.502 19.4113 206.716 20.1882 206.716 21.1078C206.716 22.6405 206.121 23.8721 204.932 24.8023C203.743 25.7219 202.199 26.1817 200.301 26.1817C198.967 26.1817 197.788 25.9386 196.762 25.4523C195.737 24.9661 194.932 24.2896 194.346 23.4227C193.771 22.5454 193.485 21.5994 193.485 20.5846H196.332C196.383 21.5677 196.762 22.3498 197.47 22.9312C198.189 23.5021 199.132 23.7875 200.301 23.7875C201.378 23.7875 202.239 23.5655 202.885 23.1214C203.542 22.6669 203.871 22.0645 203.871 21.314Z" fill="#9C46FF"/>
</svg>
