<svg width="125" height="33" viewBox="0 0 125 33" fill="none" xmlns="http://www.w3.org/2000/svg">
<path d="M14.3334 3.15986C16.609 3.59313 18.5957 4.85682 19.9683 6.62598C21.2686 8.28683 22.0633 10.4171 22.0633 12.6917C22.0633 14.172 21.2325 16.4467 19.7154 19.2268C20.185 20.0211 20.6907 20.8876 21.2686 21.8264C23.1831 18.5047 24.6279 15.1469 24.6279 12.6917C24.6279 9.91158 23.761 7.34809 22.28 5.29008C20.8713 3.34039 18.9569 1.78786 16.6813 0.957433C15.4532 0.451957 14.0806 0.199219 12.6357 0.199219C5.98945 0.199219 0.607422 5.79556 0.607422 12.6917C0.607422 17.7103 6.63963 26.4118 10.2156 31.1416C10.7935 31.9359 11.6966 32.3691 12.6357 32.3691C13.5749 32.3691 14.4779 31.9359 15.0558 31.1416C15.8144 30.1667 16.6452 29.0113 17.5482 27.7477C17.0064 26.9533 16.5007 26.159 15.995 25.3647C15.092 26.6645 14.1167 28.0004 13.0692 29.4085C12.8886 29.6612 12.4551 29.6612 12.2384 29.4085C6.56739 21.9347 3.20814 15.6884 3.20814 12.6917C3.20814 7.34809 7.43429 2.97934 12.6357 2.97934C13.2137 2.97934 13.7555 3.05155 14.3334 3.15986Z" fill="#D27628"/>
<path d="M19.8238 27.7477C20.6907 29.0113 21.5576 30.1667 22.3162 31.1416C22.8941 31.9359 23.7971 32.3691 24.7363 32.3691C25.6754 32.3691 26.5785 31.9359 27.1564 31.1416C30.6963 26.4118 36.7285 17.6742 36.7285 12.6917C36.7285 5.79556 31.3464 0.199219 24.7002 0.199219C23.2553 0.199219 21.8827 0.451957 20.6185 0.957433C21.4854 1.60733 22.3162 2.32944 23.0025 3.15986C23.5443 3.05155 24.1222 2.97934 24.7002 2.97934C29.9016 2.97934 34.1278 7.31199 34.1278 12.6917C34.1278 15.6884 30.7685 21.9347 25.0975 29.4085C24.9169 29.6612 24.4834 29.6612 24.2667 29.4085C23.2192 28.0004 22.2439 26.6645 21.3409 25.3647C19.8238 23.1262 18.5235 21.0682 17.5482 19.2268C16.0311 16.4106 15.2365 14.1359 15.2365 12.6917C15.2365 10.3809 16.0311 8.28683 17.3315 6.62598C16.6452 6.0483 15.8505 5.61503 14.9836 5.29008C13.5026 7.34809 12.6357 9.91158 12.6357 12.6917C12.6357 15.1469 14.0806 18.5047 15.995 21.8264C17.187 23.8844 18.5235 25.9063 19.8238 27.7477Z" fill="#D27628"/>
<path d="M56.1252 10.2001V20.3819C56.1252 25.0756 53.6328 27.5307 48.8287 27.5307C43.9885 27.5307 41.6768 25.1117 41.6768 20.3458V10.0557C41.6768 9.40581 42.1825 8.82812 42.941 8.82812C43.7357 8.82812 44.2775 9.40581 44.2775 10.0557V20.2735C44.2775 23.7758 45.7223 25.22 48.8287 25.22C51.899 25.22 53.5245 23.848 53.5245 20.3458V10.2001C53.5245 9.44192 54.0663 8.82812 54.7887 8.82812C55.5834 8.82812 56.1252 9.44192 56.1252 10.2001Z" fill="white"/>
<path d="M70.9708 20.923C70.9708 25.2196 68.6229 27.5303 64.4329 27.5303C63.3492 27.5303 62.4462 27.3498 61.7238 27.097V30.8881C61.7238 31.538 61.2542 32.0796 60.4595 32.0796C59.701 32.0796 59.1953 31.538 59.1953 30.8881V15.7961C59.1953 15.1462 59.6649 14.7129 60.2789 14.7129C60.9652 14.7129 61.2903 15.1462 61.3626 15.7961L61.4348 16.7709C62.1934 15.5794 63.4937 14.7129 65.4442 14.7129C68.8757 14.7129 70.9708 16.6987 70.9708 20.923ZM68.4423 21.0674C68.4423 18.1429 67.1419 16.8792 65.0108 16.8792C63.0964 16.8792 61.7238 18.2151 61.7238 19.9482H61.6877V24.8585C62.374 25.1474 63.2047 25.4362 64.2884 25.4362C66.853 25.4001 68.4423 24.1364 68.4423 21.0674Z" fill="white"/>
<path d="M88.8506 13.7024C88.8506 14.3884 88.3449 14.7494 87.7669 14.7494C87.1168 14.7494 86.8278 14.5328 86.6472 13.9551C86.2498 13.0525 85.4552 11.1028 82.3127 11.1028C78.7728 11.1028 76.4611 13.3413 76.4611 17.9628C76.4611 22.8009 78.9534 25.1839 82.999 25.1839C85.0579 25.1839 86.3582 24.5701 86.9723 24.3535C87.2251 24.2812 87.4418 24.209 87.7308 24.209C88.3449 24.209 88.7422 24.6784 88.7422 25.2561C88.7422 25.8699 88.4894 26.1587 88.0198 26.4476C86.8639 27.0975 84.6966 27.5307 82.71 27.5307C77.2196 27.5307 73.8242 24.2812 73.8242 18.1433C73.8242 12.1137 77.1474 8.82812 82.2404 8.82812C86.8278 8.82813 88.8506 11.536 88.8506 13.7024Z" fill="white"/>
<path d="M91.5605 10.8864C91.5605 9.91156 92.2468 9.18945 93.186 9.18945C94.1613 9.18945 94.8114 9.91156 94.8114 10.8864C94.8114 11.8613 94.1613 12.5834 93.186 12.5834C92.2468 12.5834 91.5605 11.8613 91.5605 10.8864ZM94.378 15.8328V26.3034C94.378 26.9533 93.9084 27.4949 93.1138 27.4949C92.3552 27.4949 91.8495 26.9533 91.8495 26.3034V15.8328C91.8495 15.183 92.3552 14.6414 93.1138 14.6414C93.8723 14.6775 94.378 15.183 94.378 15.8328Z" fill="white"/>
<path d="M101.456 16.9879V23.7035C101.456 24.9672 102.034 25.2921 102.901 25.2921C103.118 25.2921 103.335 25.256 103.768 25.2199C104.491 25.1116 104.852 25.6532 104.852 26.1947C104.852 26.7002 104.563 27.2057 103.949 27.314C103.443 27.3862 102.865 27.4584 102.287 27.4584C100.084 27.4584 99.0002 26.6641 99.0002 23.884V16.9879H97.736C97.1942 16.9879 96.7246 16.5546 96.7246 15.9408C96.7246 15.2909 97.1942 14.8937 97.736 14.8937H99.0002V12.4747C99.0002 11.8248 99.5059 11.2832 100.264 11.2832C101.023 11.2832 101.493 11.8248 101.493 12.4747V14.8937H103.877C104.455 14.8937 104.888 15.2909 104.888 15.9408C104.888 16.5546 104.455 16.9879 103.877 16.9879H101.456Z" fill="white"/>
<path d="M118.036 15.7238C118.036 15.9404 117.964 16.1932 117.856 16.4098L112.51 29.155C111.607 31.2852 110.27 32.0073 108.32 32.0073C107.886 32.0073 107.669 31.9712 107.489 31.9712C106.839 31.899 106.441 31.5019 106.441 30.8881C106.441 30.3104 106.803 29.8049 107.453 29.841C107.633 29.841 107.814 29.8771 108.211 29.8771C109.439 29.8771 110.162 29.48 110.523 28.5051L111.065 27.1331L106.441 16.4459C106.333 16.2293 106.261 15.9765 106.261 15.7599C106.261 15.0378 106.839 14.6406 107.453 14.6406C107.922 14.6406 108.428 14.9295 108.645 15.471L112.257 24.1725L115.724 15.4349C115.941 14.8934 116.375 14.6767 116.916 14.6767C117.422 14.6406 118.036 15.0017 118.036 15.7238Z" fill="white"/>
<path d="M124.791 16.2658C124.791 16.4464 124.683 16.5547 124.502 16.5547C124.322 16.5547 124.213 16.4464 124.213 16.2658L124.177 14.6411L123.527 16.0853C123.455 16.2297 123.346 16.3019 123.238 16.3019C123.13 16.3019 123.021 16.2297 122.949 16.1214L122.263 14.605L122.227 16.2658C122.227 16.4464 122.118 16.5547 121.938 16.5547C121.757 16.5547 121.649 16.4464 121.649 16.2658L121.685 14.4244H120.782V16.2658C120.782 16.4464 120.673 16.5547 120.493 16.5547C120.312 16.5547 120.204 16.4464 120.204 16.2658V14.4244H119.554C119.409 14.4244 119.301 14.3161 119.301 14.1717C119.301 14.0273 119.409 13.9551 119.554 13.9551H121.974C122.263 13.9551 122.479 14.0995 122.624 14.3161L123.202 15.6159L123.816 14.28C123.924 14.0634 124.105 13.9551 124.285 13.9551C124.538 13.9551 124.719 14.1356 124.719 14.4244L124.791 16.2658Z" fill="white"/>
</svg>
